<svg id="그룹_3384" data-name="그룹 3384" xmlns="http://www.w3.org/2000/svg" xmlns:xlink="http://www.w3.org/1999/xlink" width="220.351" height="51.248" viewBox="0 0 220.351 51.248">
  <defs>
    <clipPath id="clip-path">
      <rect id="사각형_1339" data-name="사각형 1339" width="220.351" height="51.248" fill="none"/>
    </clipPath>
  </defs>
  <g id="그룹_3363" data-name="그룹 3363" clip-path="url(#clip-path)">
    <path id="패스_1722" data-name="패스 1722" d="M1000.229,54.872l-3.6-.1A68,68,0,0,0,997.851,41.4h-18.62V38.033h20.308a2,2,0,0,1,1.939,1.7,88.417,88.417,0,0,1-1.249,15.143" transform="translate(-784.864 -30.484)" fill="#003475"/>
    <path id="패스_1723" data-name="패스 1723" d="M665.9,62.426V59.046a73.532,73.532,0,0,1-9.174.35V47.207h8.418V43.841H654.847A1.856,1.856,0,0,0,653,45.7V60.906a1.856,1.856,0,0,0,1.856,1.856s8.422.164,11.044-.336" transform="translate(-523.384 -35.139)" fill="#003475"/>
    <path id="패스_1724" data-name="패스 1724" d="M818.3,62.218c-4.966,0-8.242,2.6-8.242,5.889S813.3,74,818.3,74s8.242-2.6,8.242-5.89-3.238-5.889-8.242-5.889m2.925,7.721a5.664,5.664,0,0,1-2.891.655,5.88,5.88,0,0,1-2.892-.656,2.028,2.028,0,0,1-1.157-1.849,2,2,0,0,1,1.158-1.812,6.753,6.753,0,0,1,5.765-.02,2,2,0,0,1,1.107,1.832,2.045,2.045,0,0,1-1.09,1.85" transform="translate(-649.272 -49.868)" fill="#003475"/>
    <path id="패스_1725" data-name="패스 1725" d="M413.949,37.331h6.773v8.081h3.726V26.01h-3.726v7.956h-6.773Z" transform="translate(-331.785 -20.847)" fill="#003475"/>
    <path id="패스_1726" data-name="패스 1726" d="M736.069,38.216h-3.177v-9.83h-3.727V56.542l3.727-1.14V41.582h3.177V58.039l3.727-1.349V28.058h-3.727Z" transform="translate(-584.434 -22.488)" fill="#003475"/>
    <path id="패스_1727" data-name="패스 1727" d="M815.27,25.841V22.39h-3.562v3.45h-7.543v3.148h18.825V25.841Z" transform="translate(-644.547 -17.946)" fill="#003475"/>
    <path id="패스_1728" data-name="패스 1728" d="M917.817,26.72H914.09V45.11h3.727V39.192h5.162V35.827h-5.162Z" transform="translate(-732.653 -21.416)" fill="#003475"/>
    <path id="패스_1729" data-name="패스 1729" d="M981.858,99.4V88.412h-3.727V99.4h-3.7V88.412H970.7V99.4h-6.378v3.365h27.466l1.477-3.365Z" transform="translate(-772.915 -70.863)" fill="#003475"/>
    <path id="패스_1730" data-name="패스 1730" d="M510.675,38.95h16c1.159,0,2.1-.487,2.1-1.52V26.964h-3.727v3.551H512.294V26.964h-3.727V37.43c0,1.033.943,1.518,2.108,1.52m1.619-5.524h12.755v2.514H512.294Z" transform="translate(-407.622 -21.612)" fill="#003475"/>
    <path id="패스_1731" data-name="패스 1731" d="M369.269,134.108v-5.622h-3.727V135.6a2.006,2.006,0,0,0,2.108,1.876h16.636l1.97-3.366Z" transform="translate(-292.986 -102.983)" fill="#003475"/>
    <path id="패스_1732" data-name="패스 1732" d="M516.267,101.366V98.357H487.1v3.009h12.7v2.449h-9.173v3.01h18.05v7.79l3.727-1.09v-7.848a1.983,1.983,0,0,0-2-1.862h-6.878v-2.449Z" transform="translate(-390.418 -78.834)" fill="#003475"/>
    <path id="패스_1733" data-name="패스 1733" d="M346.593,38.017h5.6V34.652H337.344v3.365h5.585c-.139,7.692-6.682,10.666-7.166,11.034l2.884,2.478a12.725,12.725,0,0,0,6.071-7.042h.19c1.266,4.525,6.155,6.653,6.155,6.653l2.663-2.663s-7.408-3.122-7.135-10.46" transform="translate(-269.118 -27.774)" fill="#003475"/>
    <path id="패스_1734" data-name="패스 1734" d="M847.686,132.486a1.97,1.97,0,0,0-1.984-1.863H826.567v3.366h17.392v6.345l3.727-.981Z" transform="translate(-662.502 -104.696)" fill="#003475"/>
    <path id="패스_1735" data-name="패스 1735" d="M373.93,207.94h2.264v-1.132H373.93V205.53h2.4v-1.141h-3.8v6.154h3.353l.573-1.142H373.93Z" transform="translate(-298.589 -163.82)" fill="#003475"/>
    <path id="패스_1736" data-name="패스 1736" d="M401.859,203.88a2.979,2.979,0,0,0-2.995,3.223,2.869,2.869,0,0,0,2.894,3.131,2.934,2.934,0,0,0,3.022-3.241,2.868,2.868,0,0,0-2.922-3.113m-.027,5.25c-.931,0-1.5-.849-1.5-2.054s.548-2.091,1.488-2.091c.959,0,1.488.95,1.488,2.054,0,1.2-.539,2.091-1.479,2.091" transform="translate(-319.694 -163.412)" fill="#003475"/>
    <path id="패스_1737" data-name="패스 1737" d="M475.089,207.043v-.018a1.391,1.391,0,0,0,1.014-1.315,1.34,1.34,0,0,0-.74-1.206,3.405,3.405,0,0,0-1.817-.346,11.078,11.078,0,0,0-1.8.128v6.044a10.827,10.827,0,0,0,1.506.091,3.885,3.885,0,0,0,2.419-.556,1.642,1.642,0,0,0,.639-1.306,1.54,1.54,0,0,0-1.224-1.516m-1.963-1.835a3.781,3.781,0,0,1,.594-.037c.63,0,.986.247.986.713s-.392.758-1.123.758h-.457Zm.539,4.182a4.25,4.25,0,0,1-.539-.019v-1.734h.475c.694,0,1.251.247,1.251.867,0,.648-.557.886-1.187.886" transform="translate(-378.111 -163.635)" fill="#003475"/>
    <path id="패스_1738" data-name="패스 1738" d="M505.9,207.929c0,1.087-.4,1.6-1.132,1.6-.712,0-1.114-.539-1.114-1.6v-3.542h-1.4v3.433c0,1.963.913,2.821,2.465,2.821,1.607,0,2.565-.9,2.565-2.8v-3.451H505.9Z" transform="translate(-402.563 -163.818)" fill="#003475"/>
    <path id="패스_1739" data-name="패스 1739" d="M541.372,204.387h-1.707l-1.4,2.045c-.137.219-.283.438-.42.676h-.027v-2.721h-1.379v6.154h1.379v-2.009l.53-.648,1.507,2.657h1.625l-2.146-3.534Z" transform="translate(-429.964 -163.818)" fill="#003475"/>
    <rect id="사각형_1336" data-name="사각형 1336" width="1.397" height="6.163" transform="translate(133.855 40.556)" fill="#003475"/>
    <path id="패스_1740" data-name="패스 1740" d="M691.819,203.88a2.979,2.979,0,0,0-2.994,3.223,2.869,2.869,0,0,0,2.894,3.131,2.934,2.934,0,0,0,3.022-3.241,2.868,2.868,0,0,0-2.922-3.113m-.028,5.25c-.931,0-1.5-.849-1.5-2.054s.548-2.091,1.489-2.091c.958,0,1.488.95,1.488,2.054,0,1.2-.539,2.091-1.479,2.091" transform="translate(-552.101 -163.412)" fill="#003475"/>
    <path id="패스_1741" data-name="패스 1741" d="M794.759,204.332h-1.4V210.5h3.271l.573-1.169h-2.447Z" transform="translate(-635.888 -163.774)" fill="#003475"/>
    <path id="패스_1742" data-name="패스 1742" d="M833.771,207.861c0,1.087-.4,1.6-1.132,1.6-.712,0-1.115-.539-1.115-1.6v-3.542h-1.4v3.433c0,1.963.913,2.822,2.465,2.822,1.608,0,2.566-.9,2.566-2.8v-3.451h-1.388Z" transform="translate(-665.356 -163.764)" fill="#003475"/>
    <rect id="사각형_1337" data-name="사각형 1337" width="1.398" height="6.164" transform="translate(178.584 40.556)" fill="#003475"/>
    <path id="패스_1743" data-name="패스 1743" d="M917.235,206.969c-.21.7-.4,1.434-.557,2.173h-.028c-.146-.767-.337-1.47-.548-2.2l-.749-2.614H913.83l1.972,6.166h1.625l2.072-6.166h-1.479Z" transform="translate(-732.445 -163.771)" fill="#003475"/>
    <path id="패스_1744" data-name="패스 1744" d="M950.481,207.92h2.265v-1.132h-2.265v-1.313h2.4v-1.155h-3.8v6.167h3.353l.573-1.142h-2.529Z" transform="translate(-760.701 -163.765)" fill="#003475"/>
    <path id="패스_1745" data-name="패스 1745" d="M980.652,207.472v-.027a1.634,1.634,0,0,0,1.086-1.516,1.562,1.562,0,0,0-.566-1.287,3.139,3.139,0,0,0-1.991-.484,12.23,12.23,0,0,0-1.853.128v6.072h1.379v-2.42h.42c.566.009.831.219.995.986a7.748,7.748,0,0,0,.43,1.434h1.424c-.118-.238-.31-1.041-.5-1.735a1.55,1.55,0,0,0-.821-1.15m-1.4-.538h-.548v-1.7a3.416,3.416,0,0,1,.63-.046c.639.009,1.022.292,1.022.858,0,.539-.411.886-1.1.886" transform="translate(-783.339 -163.635)" fill="#003475"/>
    <rect id="사각형_1338" data-name="사각형 1338" width="1.397" height="6.154" transform="translate(205.205 40.569)" fill="#003475"/>
    <path id="패스_1746" data-name="패스 1746" d="M1047.489,205.556h1.652v4.985h1.4v-4.985h1.106l.574-1.169h-4.73Z" transform="translate(-839.573 -163.819)" fill="#003475"/>
    <path id="패스_1747" data-name="패스 1747" d="M644.4,205.556h1.652v4.985h1.4v-4.985h1.106l.574-1.169H644.4Z" transform="translate(-516.497 -163.819)" fill="#003475"/>
    <path id="패스_1748" data-name="패스 1748" d="M1078.631,204.387l-.621,1.479c-.183.439-.328.794-.466,1.178h-.018c-.155-.4-.283-.731-.475-1.178l-.631-1.479h-1.588l1.945,3.634v2.52h1.388v-2.566l2.026-3.588Z" transform="translate(-861.49 -163.818)" fill="#003475"/>
    <path id="패스_1749" data-name="패스 1749" d="M620.333,210.522l-1.908-6.154H616.6l-1.881,6.154h1.443l.438-1.58h1.808l.429,1.58Zm-3.168-4.066c.1-.356.191-.822.283-1.187h.018c.092.365.2.822.311,1.187l.36,1.32,0-.014H616.8Zm.967,1.451h0v0Z" transform="translate(-492.703 -163.803)" fill="#003475"/>
    <path id="패스_1750" data-name="패스 1750" d="M864.784,210.484v-6.164h1.625l2.189,4.147-.007-4.146,1.284,0,0,6.16h-1.437l-2.382-4.539,0,4.539Z" transform="translate(-693.133 -163.765)" fill="#003475"/>
    <path id="패스_1751" data-name="패스 1751" d="M582.424,210.484v-6.164h1.625l2.188,4.147-.007-4.146,1.284,0,0,6.16h-1.437l-2.382-4.539,0,4.539Z" transform="translate(-466.818 -163.765)" fill="#003475"/>
    <path id="패스_1752" data-name="패스 1752" d="M764.483,210.522l-1.909-6.154h-1.826l-1.881,6.154h1.443l.438-1.58h1.808l.429,1.58Zm-3.169-4.066c.1-.356.191-.822.283-1.187h.018c.092.365.2.822.311,1.187l.36,1.32,0-.014h-1.334Zm.967,1.451h0v0Z" transform="translate(-608.241 -163.803)" fill="#003475"/>
    <path id="패스_1753" data-name="패스 1753" d="M726.9,210.484v-6.164h1.625l2.188,4.147-.007-4.146,1.284,0,0,6.16h-1.437l-2.382-4.539,0,4.539Z" transform="translate(-582.617 -163.765)" fill="#003475"/>
    <path id="패스_1754" data-name="패스 1754" d="M435.326,210.484v-6.164h1.625l2.189,4.147-.007-4.146,1.284,0,0,6.16h-1.437l-2.382-4.539,0,4.539Z" transform="translate(-348.918 -163.765)" fill="#003475"/>
    <path id="패스_1755" data-name="패스 1755" d="M344.461,209.465a1.263,1.263,0,0,1-.58-.253l-.484.967,0,.009h0l0,.006s.027.022.07.053a1.483,1.483,0,0,0,.419.231l0,0a2.931,2.931,0,0,0,.9.173,3.354,3.354,0,0,0,.853-.075l.037-.008q.066-.016.129-.034t.119-.038l.09-.033.068-.029c.045-.02.088-.042.128-.064a2.153,2.153,0,0,0,.932-2.093v-3.89h-1.388v3.871c.01.852-.291,1.158-.773,1.213a1.436,1.436,0,0,1-.234.019,1.622,1.622,0,0,1-.287-.026" transform="translate(-275.23 -163.819)" fill="#003475"/>
    <path id="패스_1756" data-name="패스 1756" d="M1008.969,206.662c-.782-.3-1.123-.468-1.123-.854,0-.315.287-.585.88-.585a2.877,2.877,0,0,1,1.071.2l.5-.993.008-.027a3.721,3.721,0,0,0-1.547-.306c-1.429,0-2.292.792-2.292,1.826,0,.881.656,1.439,1.663,1.789.729.261,1.016.477,1.016.855,0,.395-.332.656-.962.656a3.418,3.418,0,0,1-1.288-.275l-.505,1.013,0,.017a3.965,3.965,0,0,0,1.717.368c1.664,0,2.446-.863,2.446-1.879,0-.854-.5-1.412-1.574-1.807" transform="translate(-806.624 -163.588)" fill="#003475"/>
    <path id="패스_1757" data-name="패스 1757" d="M25.624,0A25.624,25.624,0,1,0,51.248,25.625,25.624,25.624,0,0,0,25.624,0m0,45.442A19.818,19.818,0,1,1,45.442,25.625,19.818,19.818,0,0,1,25.624,45.443" transform="translate(0 -0.001)" fill="#003475"/>
    <path id="패스_1758" data-name="패스 1758" d="M71.152,52.081A19.072,19.072,0,1,1,52.08,33.009,19.072,19.072,0,0,1,71.152,52.081" transform="translate(-26.456 -26.457)" fill="#91024d"/>
    <path id="패스_1759" data-name="패스 1759" d="M8.687,133.749a1.91,1.91,0,0,0-.425.876,2.437,2.437,0,0,0-.575-.807,2.7,2.7,0,0,0-1.22-.743,2.067,2.067,0,0,0,.579,1.257,2.3,2.3,0,0,0,1.259.653A2.848,2.848,0,0,0,9.4,134.12a2.03,2.03,0,0,0,.431-1.154,2.222,2.222,0,0,0-1.142.783" transform="translate(-5.183 -106.574)" fill="#fff"/>
    <path id="패스_1760" data-name="패스 1760" d="M18.856,172.65a1.937,1.937,0,0,0-.065.966,2.389,2.389,0,0,0-.84-.535,2.7,2.7,0,0,0-1.407-.243,2.013,2.013,0,0,0,1.006.953,2.328,2.328,0,0,0,1.409.147,2.8,2.8,0,0,0,.7-1.207,2.1,2.1,0,0,0-.03-1.229,2.224,2.224,0,0,0-.775,1.148" transform="translate(-13.26 -137.461)" fill="#fff"/>
    <path id="패스_1761" data-name="패스 1761" d="M24,181.7a2.06,2.06,0,0,0,.009.979,2.232,2.232,0,0,0-.87-.465,2.466,2.466,0,0,0-.712-.146,2.9,2.9,0,0,0-.714.037,1.752,1.752,0,0,0,.459.514,2.219,2.219,0,0,0,.628.344,2.118,2.118,0,0,0,.707.123,2.5,2.5,0,0,0,.71-.11,2.871,2.871,0,0,0,.367-.6,2.831,2.831,0,0,0,.217-.668,2.083,2.083,0,0,0,.022-.65,2.378,2.378,0,0,0-.162-.572,2.616,2.616,0,0,0-.436.561A1.948,1.948,0,0,0,24,181.7" transform="translate(-17.401 -144.659)" fill="#fff"/>
    <path id="패스_1762" data-name="패스 1762" d="M30.045,190.367a2.639,2.639,0,0,0,0,.6,1.12,1.12,0,0,0,.1.368,1.208,1.208,0,0,0-.335-.193c-.148-.06-.34-.117-.579-.194a2.639,2.639,0,0,0-1.426,0,2.24,2.24,0,0,0,.5.478,1.838,1.838,0,0,0,.65.3,2.338,2.338,0,0,0,1.417-.1,2.791,2.791,0,0,0,.481-1.307,2.7,2.7,0,0,0-.026-.652,1.713,1.713,0,0,0-.2-.559,2.266,2.266,0,0,0-.57,1.265" transform="translate(-22.283 -151.567)" fill="#fff"/>
    <path id="패스_1763" data-name="패스 1763" d="M36.984,198.405a2.05,2.05,0,0,0,.179.961,2.243,2.243,0,0,0-.938-.306,2.543,2.543,0,0,0-.726-.023,2.838,2.838,0,0,0-.7.159,2.218,2.218,0,0,0,.245.24,2.1,2.1,0,0,0,.295.188,2.222,2.222,0,0,0,.679.23,2.158,2.158,0,0,0,.717,0,2.513,2.513,0,0,0,.681-.231,2.871,2.871,0,0,0,.258-.653,2.757,2.757,0,0,0,.1-.7,2.071,2.071,0,0,0-.091-.643,1.88,1.88,0,0,0-.114-.278,1.687,1.687,0,0,0-.142-.259,2.658,2.658,0,0,0-.334.628,1.9,1.9,0,0,0-.11.682" transform="translate(-27.895 -157.974)" fill="#fff"/>
    <path id="패스_1764" data-name="패스 1764" d="M44.783,205.779a2.651,2.651,0,0,0,.118.585,1.123,1.123,0,0,0,.17.342,1.2,1.2,0,0,0-.367-.122c-.157-.03-.356-.047-.607-.074a2.643,2.643,0,0,0-1.4.284,2.235,2.235,0,0,0,.583.369,1.84,1.84,0,0,0,.7.16,2.332,2.332,0,0,0,1.368-.38,2.8,2.8,0,0,0,.209-1.378,2.693,2.693,0,0,0-.156-.633,1.71,1.71,0,0,0-.312-.506,2.264,2.264,0,0,0-.305,1.353" transform="translate(-34.225 -163.85)" fill="#fff"/>
    <path id="패스_1765" data-name="패스 1765" d="M53.306,212.559a2.034,2.034,0,0,0,.355.911,2.262,2.262,0,0,0-.978-.126,2.469,2.469,0,0,0-.718.115,2.84,2.84,0,0,0-.655.287,2.03,2.03,0,0,0,.286.19,2.251,2.251,0,0,0,.325.13,2.2,2.2,0,0,0,2.04-.389,2.951,2.951,0,0,0,.1-1.391,2.077,2.077,0,0,0-.209-.616,1.7,1.7,0,0,0-.164-.252,1.916,1.916,0,0,0-.189-.227,2.664,2.664,0,0,0-.211.68,1.949,1.949,0,0,0,.02.69" transform="translate(-41.126 -169.27)" fill="#fff"/>
    <path id="패스_1766" data-name="패스 1766" d="M12.734,122.181a1.894,1.894,0,0,0,.425,1.229,2.168,2.168,0,0,0,.045-2.44,1.9,1.9,0,0,0-.47,1.212" transform="translate(-10.206 -96.958)" fill="#fff"/>
    <path id="패스_1767" data-name="패스 1767" d="M9.66,143.765a1.9,1.9,0,0,0-.34.912,2.441,2.441,0,0,0-.648-.749,2.7,2.7,0,0,0-1.284-.625,2.066,2.066,0,0,0,.694,1.2,2.3,2.3,0,0,0,1.315.532,2.848,2.848,0,0,0,1.006-.965,2.03,2.03,0,0,0,.321-1.189,2.221,2.221,0,0,0-1.063.887" transform="translate(-5.921 -114.518)" fill="#fff"/>
    <path id="패스_1768" data-name="패스 1768" d="M11.684,153.619a1.909,1.909,0,0,0-.253.94,2.437,2.437,0,0,0-.716-.685,2.7,2.7,0,0,0-1.337-.5,2.067,2.067,0,0,0,.8,1.127,2.3,2.3,0,0,0,1.359.407,2.848,2.848,0,0,0,.912-1.055,2.031,2.031,0,0,0,.208-1.214,2.222,2.222,0,0,0-.975.983" transform="translate(-7.517 -122.339)" fill="#fff"/>
    <path id="패스_1769" data-name="패스 1769" d="M14.733,163.226a1.906,1.906,0,0,0-.164.96,2.442,2.442,0,0,0-.776-.616,2.705,2.705,0,0,0-1.379-.375,2.067,2.067,0,0,0,.905,1.046,2.3,2.3,0,0,0,1.391.278,2.847,2.847,0,0,0,.809-1.136,2.03,2.03,0,0,0,.093-1.228,2.224,2.224,0,0,0-.879,1.07" transform="translate(-9.95 -129.97)" fill="#fff"/>
    <path id="패스_1770" data-name="패스 1770" d="M235.932,133.749a1.91,1.91,0,0,1,.425.876,2.437,2.437,0,0,1,.575-.807,2.7,2.7,0,0,1,1.22-.743,2.068,2.068,0,0,1-.579,1.257,2.3,2.3,0,0,1-1.259.653,2.848,2.848,0,0,1-1.093-.866,2.03,2.03,0,0,1-.431-1.154,2.222,2.222,0,0,1,1.142.783" transform="translate(-188.187 -106.574)" fill="#fff"/>
    <path id="패스_1771" data-name="패스 1771" d="M226.442,172.65a1.937,1.937,0,0,1,.064.966,2.389,2.389,0,0,1,.84-.535,2.7,2.7,0,0,1,1.407-.243,2.013,2.013,0,0,1-1.006.953,2.328,2.328,0,0,1-1.409.147,2.8,2.8,0,0,1-.7-1.207,2.1,2.1,0,0,1,.03-1.229,2.224,2.224,0,0,1,.775,1.148" transform="translate(-180.79 -137.461)" fill="#fff"/>
    <path id="패스_1772" data-name="패스 1772" d="M221.573,181.7a2.06,2.06,0,0,1-.009.979,2.231,2.231,0,0,1,.87-.465,2.466,2.466,0,0,1,.712-.146,2.9,2.9,0,0,1,.714.037,1.752,1.752,0,0,1-.459.514,2.219,2.219,0,0,1-.628.344,2.118,2.118,0,0,1-.707.123,2.5,2.5,0,0,1-.71-.11,2.87,2.87,0,0,1-.367-.6,2.831,2.831,0,0,1-.217-.668,2.083,2.083,0,0,1-.022-.65,2.378,2.378,0,0,1,.162-.572,2.616,2.616,0,0,1,.436.561,1.948,1.948,0,0,1,.225.653" transform="translate(-176.92 -144.659)" fill="#fff"/>
    <path id="패스_1773" data-name="패스 1773" d="M215.822,190.367a2.638,2.638,0,0,1,0,.6,1.12,1.12,0,0,1-.1.368,1.208,1.208,0,0,1,.335-.193c.148-.06.34-.117.579-.194a2.639,2.639,0,0,1,1.426,0,2.24,2.24,0,0,1-.5.478,1.838,1.838,0,0,1-.65.3,2.338,2.338,0,0,1-1.417-.1,2.788,2.788,0,0,1-.481-1.307,2.694,2.694,0,0,1,.025-.652,1.713,1.713,0,0,1,.2-.559,2.266,2.266,0,0,1,.57,1.265" transform="translate(-172.336 -151.567)" fill="#fff"/>
    <path id="패스_1774" data-name="패스 1774" d="M209.2,198.405a2.05,2.05,0,0,1-.179.961,2.243,2.243,0,0,1,.938-.306,2.545,2.545,0,0,1,.726-.023,2.838,2.838,0,0,1,.7.159,2.217,2.217,0,0,1-.245.24,2.1,2.1,0,0,1-.295.188,2.224,2.224,0,0,1-.679.23,2.157,2.157,0,0,1-.717,0,2.513,2.513,0,0,1-.681-.231,2.873,2.873,0,0,1-.258-.653,2.758,2.758,0,0,1-.1-.7,2.071,2.071,0,0,1,.091-.643,1.88,1.88,0,0,1,.114-.278,1.691,1.691,0,0,1,.142-.259,2.665,2.665,0,0,1,.334.628,1.9,1.9,0,0,1,.11.682" transform="translate(-167.044 -157.974)" fill="#fff"/>
    <path id="패스_1775" data-name="패스 1775" d="M201.81,205.779a2.662,2.662,0,0,1-.118.585,1.127,1.127,0,0,1-.171.342,1.2,1.2,0,0,1,.367-.122c.157-.03.357-.047.607-.074a2.643,2.643,0,0,1,1.4.284,2.234,2.234,0,0,1-.583.369,1.84,1.84,0,0,1-.7.16,2.332,2.332,0,0,1-1.368-.38,2.8,2.8,0,0,1-.209-1.378,2.692,2.692,0,0,1,.156-.633,1.71,1.71,0,0,1,.312-.506,2.264,2.264,0,0,1,.305,1.353" transform="translate(-161.12 -163.85)" fill="#fff"/>
    <path id="패스_1776" data-name="패스 1776" d="M193.62,212.559a2.034,2.034,0,0,1-.355.911,2.262,2.262,0,0,1,.978-.126,2.468,2.468,0,0,1,.718.115,2.84,2.84,0,0,1,.655.287,2.031,2.031,0,0,1-.286.19,2.253,2.253,0,0,1-.325.13,2.2,2.2,0,0,1-2.04-.389,2.951,2.951,0,0,1-.1-1.391,2.077,2.077,0,0,1,.209-.616,1.7,1.7,0,0,1,.164-.252,1.915,1.915,0,0,1,.189-.227,2.664,2.664,0,0,1,.211.68,1.95,1.95,0,0,1-.02.69" transform="translate(-154.552 -169.27)" fill="#fff"/>
    <path id="패스_1777" data-name="패스 1777" d="M242.129,122.181a1.894,1.894,0,0,1-.425,1.229,2.168,2.168,0,0,1-.045-2.44,1.9,1.9,0,0,1,.47,1.212" transform="translate(-193.409 -96.958)" fill="#fff"/>
    <path id="패스_1778" data-name="패스 1778" d="M235.047,143.765a1.9,1.9,0,0,1,.34.912,2.441,2.441,0,0,1,.648-.749,2.7,2.7,0,0,1,1.284-.625,2.066,2.066,0,0,1-.694,1.2,2.3,2.3,0,0,1-1.315.532,2.846,2.846,0,0,1-1.006-.965,2.03,2.03,0,0,1-.321-1.189,2.221,2.221,0,0,1,1.063.887" transform="translate(-187.538 -114.518)" fill="#fff"/>
    <path id="패스_1779" data-name="패스 1779" d="M233.17,153.619a1.909,1.909,0,0,1,.253.94,2.438,2.438,0,0,1,.716-.685,2.7,2.7,0,0,1,1.337-.5,2.067,2.067,0,0,1-.8,1.127,2.3,2.3,0,0,1-1.359.407,2.848,2.848,0,0,1-.912-1.055,2.031,2.031,0,0,1-.208-1.214,2.222,2.222,0,0,1,.975.983" transform="translate(-186.089 -122.339)" fill="#fff"/>
    <path id="패스_1780" data-name="패스 1780" d="M230.318,163.226a1.907,1.907,0,0,1,.164.96,2.442,2.442,0,0,1,.776-.616,2.705,2.705,0,0,1,1.379-.375,2.067,2.067,0,0,1-.905,1.046,2.3,2.3,0,0,1-1.391.278,2.849,2.849,0,0,1-.809-1.136,2.033,2.033,0,0,1-.093-1.228,2.223,2.223,0,0,1,.879,1.07" transform="translate(-183.853 -129.97)" fill="#fff"/>
    <path id="패스_1781" data-name="패스 1781" d="M73.3,223.632l-.416-.22c-.371.075-.741.127-1.124.185l.073.449.409-.062c.047-.009.1-.02.156-.035a1.189,1.189,0,0,0,.115-.034l-.149.249-.129.229-.768,1.411.574.3Z" transform="translate(-57.279 -179.067)" fill="#fff"/>
    <path id="패스_1782" data-name="패스 1782" d="M80.952,228.078a.96.96,0,0,0-.2-.5.987.987,0,0,0-.416-.31.93.93,0,0,0-.723-.038.99.99,0,0,0-.531.534.875.875,0,0,0-.075.682.8.8,0,0,0,.454.454.756.756,0,0,0,.426.075.736.736,0,0,0,.3-.127l.023.009a1.294,1.294,0,0,1-.255.385.6.6,0,0,1-.38.175,1.132,1.132,0,0,1-.575-.128,1.49,1.49,0,0,1-.165-.087q-.08-.049-.15-.1l-.2.427a1.491,1.491,0,0,0,.175.1l.19.091a1.778,1.778,0,0,0,.635.17,1.081,1.081,0,0,0,.881-.323,1.686,1.686,0,0,0,.276-.37,3.02,3.02,0,0,0,.2-.431,1.541,1.541,0,0,0,.109-.692m-.6-.212a.5.5,0,0,1,.054.242.718.718,0,0,1-.05.253.328.328,0,0,1-.119.147.444.444,0,0,1-.2.076.462.462,0,0,1-.239-.035.346.346,0,0,1-.224-.224.484.484,0,0,1,.041-.331.53.53,0,0,1,.248-.292.38.38,0,0,1,.3,0,.346.346,0,0,1,.185.162" transform="translate(-62.91 -182.08)" fill="#fff"/>
    <path id="패스_1783" data-name="패스 1783" d="M92.83,233.969l-.342-.088.435-1.691c-.17-.046-.342-.084-.51-.137-.271.231-.551.46-.839.686s-.58.437-.881.651l-.134.386c.4.138.809.268,1.22.384l-.158.553c.2.063.407.11.61.165l.144-.557.349.09Zm-1.6-.45c.248-.186.494-.387.732-.582q.071-.06.132-.119c.04-.039.079-.081.116-.124l.015,0-.049.138-.075.227-.064.208-.129.453c-.225-.068-.453-.13-.677-.2" transform="translate(-72.584 -185.993)" fill="#fff"/>
    <path id="패스_1784" data-name="패스 1784" d="M105.344,236.488c.521-.727,1-1.459,1.45-2.215l.047-.366c-.643-.082-1.283-.19-1.915-.334l-.107.482c.222.053.445.1.67.138s.448.084.674.116c-.462.7-.955,1.377-1.486,2.053Z" transform="translate(-83.9 -187.211)" fill="#fff"/>
    <path id="패스_1785" data-name="패스 1785" d="M123.176,235.979l-.747.01q-.307.452-.64.9l-.2.294h-.013l.049-1.216-.6-.031-.188,2.745.679.035.036-.9c.088-.092.174-.184.26-.28.224.4.46.8.708,1.2l.8-.014c-.37-.523-.718-1.034-1.043-1.57.317-.381.617-.788.9-1.18" transform="translate(-96.848 -189.108)" fill="#fff"/>
    <path id="패스_1786" data-name="패스 1786" d="M135.844,235.3a1.335,1.335,0,0,1,1.495,1.2,1.313,1.313,0,0,1-1.238,1.632,1.282,1.282,0,0,1-1.492-1.292,1.388,1.388,0,0,1,1.235-1.539m.24,2.335c.455-.055.659-.481.583-1.013-.069-.487-.363-.881-.785-.83s-.629.457-.59.992.341.9.793.85" transform="translate(-107.89 -188.584)" fill="#fff"/>
    <path id="패스_1787" data-name="패스 1787" d="M164.206,229.639c.334-.119.663-.252.99-.388l-.2-.467c-.32.133-.641.263-.968.379l-.2-.537c.338-.12.669-.256,1-.393l-.2-.47c-.511.211-1.027.414-1.553.585l.87,2.61c.525-.172,1.042-.367,1.551-.578l.062-.577c-.377.154-.753.311-1.137.447Z" transform="translate(-130.714 -182.555)" fill="#fff"/>
    <path id="패스_1788" data-name="패스 1788" d="M152.073,234.1a.719.719,0,0,1,.512.389,6.651,6.651,0,0,0,.454.675c-.225.064-.448.138-.676.194a3.023,3.023,0,0,1-.367-.567c-.163-.313-.305-.369-.565-.311l-.193.043.242,1.055c-.222.047-.442.1-.666.144l-.531-2.663a6.632,6.632,0,0,1,.779-.228,1.425,1.425,0,0,1,.9-.012.708.708,0,0,1,.4.481.717.717,0,0,1-.295.79Zm-.688-.071c.311-.08.455-.278.392-.511s-.264-.324-.54-.256a1.558,1.558,0,0,0-.27.082l.17.74.247-.055" transform="translate(-120.453 -186.555)" fill="#fff"/>
    <path id="패스_1789" data-name="패스 1789" d="M178.656,225.711l-.522-.521c-.256.134-.509.274-.77.4l.118.728c-.212.107-.43.2-.646.3-.089-.961-.215-1.918-.375-2.862.241-.113.473-.243.71-.365.682.678,1.388,1.323,2.129,1.959Zm-1.413-.584c.189-.089.371-.192.556-.287l0,0-.423-.444c-.12-.121-.258-.279-.369-.406L177,224c.039.164.1.369.128.532Zm.556-.286v0Z" transform="translate(-141.435 -179.046)" fill="#fff"/>
    <path id="패스_1790" data-name="패스 1790" d="M12.253,106.586a.561.561,0,0,1-.159.232l.382.292,0,0,0,0,.029-.026a.664.664,0,0,0,.136-.164v0a1.3,1.3,0,0,0,.15-.381,1.487,1.487,0,0,0,.038-.379v-.017q0-.03,0-.059c0-.019,0-.037-.007-.055s0-.028-.007-.042,0-.021-.007-.032-.011-.042-.017-.061c-.094-.286-.351-.488-.836-.581l-1.7-.323-.115.606,1.69.321c.373.066.481.223.465.438a.661.661,0,0,1-.011.1.719.719,0,0,1-.035.123" transform="translate(-8.131 -84.154)" fill="#fff"/>
    <path id="패스_1791" data-name="패스 1791" d="M12.217,106.581a.563.563,0,0,1-.159.232l.382.292,0,0,0,0,.029-.026a.664.664,0,0,0,.136-.164v0a1.31,1.31,0,0,0,.151-.381,1.505,1.505,0,0,0,.038-.379c0-.006,0-.011,0-.017s0-.04,0-.059,0-.037-.007-.055,0-.028-.007-.042,0-.021-.007-.032-.011-.042-.018-.061c-.094-.286-.35-.488-.836-.581l-1.7-.323-.115.606,1.69.321c.373.066.481.223.465.438a.686.686,0,0,1-.011.1.737.737,0,0,1-.035.123" transform="translate(-8.102 -84.15)" fill="#fff"/>
    <path id="패스_1792" data-name="패스 1792" d="M13.328,93.486l.263-.926-.482-.154-.269.947-.551-.15.293-1.029-.486-.156-.472,1.664,2.674.65.369-1.3-.423-.38-.284,1Z" transform="translate(-9.316 -73.754)" fill="#fff"/>
    <path id="패스_1793" data-name="패스 1793" d="M16.838,79.471a1.13,1.13,0,0,1,.774-.73,1.463,1.463,0,0,1,1.032.123,1.6,1.6,0,0,1,.806.769,1.062,1.062,0,0,1,.09.466,1.471,1.471,0,0,1-.092.5,1.287,1.287,0,0,1-1.739.623,1.289,1.289,0,0,1-.87-1.751M19,80.383c.129-.362-.132-.722-.618-.943-.451-.2-.949-.169-1.1.236s.134.765.635.954.943.108,1.079-.247" transform="translate(-13.414 -63.075)" fill="#fff"/>
    <path id="패스_1794" data-name="패스 1794" d="M32.243,53.938a.7.7,0,0,1,.866.039.752.752,0,0,1,.275.571,1.712,1.712,0,0,1-.4.931,3.94,3.94,0,0,1-.392.465l-2.21-1.556a5.065,5.065,0,0,1,.437-.693,1.389,1.389,0,0,1,.618-.563.606.606,0,0,1,.8.8Zm-.645.575.117-.16c.187-.255.183-.476.023-.6s-.344-.07-.511.157a1.68,1.68,0,0,0-.144.224Zm1.117.555a.432.432,0,0,0-.022-.641c-.217-.173-.443-.051-.619.188l-.12.163.622.463a1.591,1.591,0,0,0,.138-.174" transform="translate(-24.352 -42.548)" fill="#fff"/>
    <path id="패스_1795" data-name="패스 1795" d="M41.112,42.028c.339.348.38.626.163.833s-.489.167-.839-.159l-1.155-1.084-.42.477,1.146,1.021a1.479,1.479,0,0,0,.892.439.769.769,0,0,0,.374-.082,1.769,1.769,0,0,0,.343-.251c.465-.443.467-1.006-.107-1.631L40.46,40.46,40,40.9Z" transform="translate(-31.148 -32.429)" fill="#fff"/>
    <path id="패스_1796" data-name="패스 1796" d="M51.617,30.729A7.222,7.222,0,0,0,51,31.2q.03.561.08,1.108c.015.114.027.229.049.348l-.009.007-.774-.939-.489.393,1.8,2.077.434-.347-.571-.693-.009-.365q.623.261,1.22.544a4.974,4.974,0,0,1,.524-.392c-.554-.279-1.089-.5-1.657-.724-.006-.486-.02-1.008.016-1.487" transform="translate(-39.959 -24.63)" fill="#fff"/>
    <path id="패스_1797" data-name="패스 1797" d="M106.138,12.663a3.987,3.987,0,0,1,.554-.1l-.462-2.713a4.982,4.982,0,0,0-.625.111Z" transform="translate(-84.643 -7.897)" fill="#fff"/>
    <path id="패스_1798" data-name="패스 1798" d="M114.159,8.3a1.26,1.26,0,0,1,1.37,1.329c.019.9-.456,1.473-1.172,1.5a1.267,1.267,0,0,1-1.35-1.238,1.484,1.484,0,0,1,.218-1.07,1.217,1.217,0,0,1,.934-.525m.186,2.34c.384-.017.583-.427.555-.961-.026-.493-.286-.906-.715-.886s-.617.479-.555,1c.064.543.335.863.715.843" transform="translate(-90.561 -6.653)" fill="#fff"/>
    <path id="패스_1799" data-name="패스 1799" d="M157.161,12.094c-.2-.056-.412-.1-.618-.15l-.684,2.666c.212.055.431.087.638.161l.625.209.385-.422-.958-.319Z" transform="translate(-124.923 -9.573)" fill="#fff"/>
    <path id="패스_1800" data-name="패스 1800" d="M172.933,19.283c-.215.431-.465.565-.741.448s-.322-.4-.131-.836l.641-1.448-.583-.254-.584,1.42c-.329.814-.14,1.316.429,1.563a1.31,1.31,0,0,0,.43.107.808.808,0,0,0,.391-.05,1.409,1.409,0,0,0,.685-.7l.721-1.365-.555-.3Z" transform="translate(-137.358 -13.78)" fill="#fff"/>
    <path id="패스_1801" data-name="패스 1801" d="M194.832,35.743l.439.353,1.746-2.127-.5-.4Z" transform="translate(-156.16 -26.907)" fill="#fff"/>
    <path id="패스_1802" data-name="패스 1802" d="M203.95,39.711c-.287.161-.574.338-.851.531l-.008-.008a9.14,9.14,0,0,0,.513-.87q.283-.534.555-1.079c-.169-.158-.331-.324-.506-.474-.378.889-.8,1.771-1.23,2.621l.474.453q.637-.343,1.293-.667c.436-.215.864-.409,1.307-.6a5.488,5.488,0,0,0-.461-.489q-.548.288-1.085.588" transform="translate(-162.244 -30.305)" fill="#fff"/>
    <path id="패스_1803" data-name="패스 1803" d="M210.616,50.465l.318.362.285.388.4-.308-.292-.4-.324-.37.438-.367.351.4.317.431.405-.31a15.189,15.189,0,0,0-1.1-1.33l-2.06,1.824.446.508.224.253.2.272.542-.123-.308-.421c-.108-.136-.228-.263-.341-.395Z" transform="translate(-167.799 -39.247)" fill="#fff"/>
    <path id="패스_1804" data-name="패스 1804" d="M218.442,61.385a.678.678,0,0,1-.26.564c-.225.228-.494.476-.561.57l-.3-.491a4.1,4.1,0,0,1,.453-.49c.255-.241.275-.388.154-.6-.032-.05-.06-.1-.094-.151l-.9.6-.329-.447,2.216-1.569a3.654,3.654,0,0,1,.531.657,1.439,1.439,0,0,1,.286.886.682.682,0,0,1-.363.511.745.745,0,0,1-.825-.053Zm-.108-.643c.155.255.379.325.583.2s.233-.347.088-.594a1.212,1.212,0,0,0-.165-.228l-.631.423c.044.065.083.134.124.2" transform="translate(-173.614 -47.591)" fill="#fff"/>
    <path id="패스_1805" data-name="패스 1805" d="M228.141,83.869l.2.525,2.569-.985-.229-.593Z" transform="translate(-182.857 -66.378)" fill="#fff"/>
    <path id="패스_1806" data-name="패스 1806" d="M233.075,88.74a5.814,5.814,0,0,1,.24.695l-2.123.68.153.541,2.14-.623.134.474.576.116-.294-1.036-.148-.518c-.052-.172-.125-.336-.186-.5Z" transform="translate(-185.303 -70.986)" fill="#fff"/>
    <path id="패스_1807" data-name="패스 1807" d="M92.394,12.129a5.826,5.826,0,0,1,.7-.223l.627,2.132.543-.14-.57-2.148.475-.123.129-.571-1.038.269-.121.035c-.172.048-.736.217-.905.275Z" transform="translate(-73.924 -8.862)" fill="#fff"/>
    <path id="패스_1808" data-name="패스 1808" d="M236.852,101.758l-.7-.159c-.208-.044-.376-.077-.555-.1v-.008c.164-.1.3-.183.479-.306l.6-.413a6.141,6.141,0,0,0-.156-.705c-.434.411-.932.816-1.405,1.195l-1.1.229.1.55,1.129-.2q.869.281,1.748.623Z" transform="translate(-187.555 -80.202)" fill="#fff"/>
    <path id="패스_1809" data-name="패스 1809" d="M85.75,17.956l-.406-.609-.357.12-.345.151.1.726-.533.232Q84,17.167,83.876,15.72l.381-.165.394-.133q.883,1.155,1.671,2.343Zm-1.2-.8a4.031,4.031,0,0,1,.528-.205l0,.006-.354-.5c-.1-.137-.223-.316-.318-.45L84.4,16c.021.169.06.379.078.544Zm.528-.2v0Z" transform="translate(-67.228 -12.361)" fill="#fff"/>
    <path id="패스_1810" data-name="패스 1810" d="M143.866,12.716l-.034-.733c-.243-.061-.5-.076-.742-.116l-.285.673-.575-.08q.541-1.313,1.179-2.614c.273.045.55.063.819.13q.16,1.449.223,2.878Zm-.618-1.3c.187.027.374.049.56.081v.007l-.045-.6c-.018-.168-.03-.375-.043-.542h-.008c-.068.155-.144.355-.213.506Zm.559.082v0Z" transform="translate(-114 -7.892)" fill="#fff"/>
    <path id="패스_1811" data-name="패스 1811" d="M67.689,23.717l-1.435-2.348c.207-.133.429-.241.644-.363q.941.6,1.807,1.236l-.941-1.719c.172-.09.338-.193.517-.271l1.207,2.482c-.176.078-.34.182-.511.271q-.893-.667-1.868-1.291l1.027,1.75c-.149.085-.305.157-.448.252" transform="translate(-53.103 -16.232)" fill="#fff"/>
    <path id="패스_1812" data-name="패스 1812" d="M24.451,66.884l-2.444-1.265c.115-.217.2-.449.34-.654q1.122.029,2.2.131l-1.7-.983.3-.5,2.318,1.5-.3.494q-1.117-.114-2.283-.148l1.786.965Z" transform="translate(-17.639 -50.988)" fill="#fff"/>
    <path id="패스_1813" data-name="패스 1813" d="M128.693,10.7l-.011-2.752c.246-.006.493.017.739.024q.5,1,.909,1.995l.083-1.958.584.029-.249,2.748-.58-.026q-.421-1.034-.933-2.074l-.027,2.03c-.172,0-.344-.025-.515-.016" transform="translate(-103.14 -6.37)" fill="#fff"/>
    <path id="패스_1814" data-name="패스 1814" d="M182.9,26.668l1.381-2.38a6.025,6.025,0,0,1,.636.378q-.079,1.118-.231,2.191l1.063-1.647.486.326-1.607,2.244-.483-.321q.164-1.11.251-2.271l-1.05,1.737c-.14-.1-.3-.169-.447-.256" transform="translate(-146.598 -19.467)" fill="#fff"/>
    <path id="패스_1815" data-name="패스 1815" d="M225.166,73.232c-.051-.38-.058-.555.1-.638.126-.068.3-.01.426.229a1.329,1.329,0,0,1,.152.476l.506-.014.013,0a1.719,1.719,0,0,0-.215-.691c-.311-.577-.816-.755-1.23-.532-.353.19-.433.576-.354,1.058.054.351.031.513-.121.6s-.335.007-.472-.247a1.579,1.579,0,0,1-.171-.579l-.516.015-.008,0a1.832,1.832,0,0,0,.227.773c.362.672.879.8,1.285.582.342-.184.455-.508.38-1.026" transform="translate(-178.956 -57.682)" fill="#fff"/>
    <path id="패스_1816" data-name="패스 1816" d="M115.7,59.486V46.094L114.526,47l-.48,12.487Z" transform="translate(-91.409 -36.945)" fill="#fff"/>
    <path id="패스_1817" data-name="패스 1817" d="M102.9,54.568l-.837,10.922h1.65l.458-11.905Z" transform="translate(-81.807 -42.948)" fill="#fff"/>
    <path id="패스_1818" data-name="패스 1818" d="M91.144,62.632l-1.058,9.252h1.649l.79-10.322Z" transform="translate(-72.205 -49.343)" fill="#fff"/>
    <path id="패스_1819" data-name="패스 1819" d="M137,47l-1.17-.905V59.486h1.65Z" transform="translate(-108.872 -36.945)" fill="#fff"/>
    <path id="패스_1820" data-name="패스 1820" d="M146.779,54.568l-1.27-.983.458,11.905h1.65Z" transform="translate(-116.627 -42.948)" fill="#fff"/>
    <path id="패스_1821" data-name="패스 1821" d="M157.2,62.632l-1.381-1.069.79,10.322h1.65Z" transform="translate(-124.887 -49.343)" fill="#fff"/>
    <path id="패스_1822" data-name="패스 1822" d="M97.126,118.122H88.474v2.332a6.058,6.058,0,0,1,2.372-.474,6.259,6.259,0,0,1,2.28.414l.321.138.054.345.806,5.137.148.944-.927-.232a6.254,6.254,0,0,0-1.515-.188,6.6,6.6,0,0,0-3.593,1.087l-.379.282-.379-.28a6.6,6.6,0,0,0-3.594-1.089,6.255,6.255,0,0,0-1.515.188l-.927.232.148-.944.806-5.137.054-.345.321-.138a6.258,6.258,0,0,1,2.281-.414,6.057,6.057,0,0,1,2.372.474v-2.332H77.874V120.9h1.082v3.4a11.844,11.844,0,0,0,2.73,7.58,7.948,7.948,0,0,1-2.415.768,14.36,14.36,0,0,0,1.785,2.036,10.337,10.337,0,0,0,2.4-1.068,11.865,11.865,0,0,0,4.15,2.131v-2.5a9.549,9.549,0,0,1-5.359-4.876,6.058,6.058,0,0,1,5.792,1.64,6.058,6.058,0,0,1,5.792-1.64,9.549,9.549,0,0,1-5.359,4.876v2.5a11.865,11.865,0,0,0,4.15-2.131,10.337,10.337,0,0,0,2.4,1.068,14.359,14.359,0,0,0,1.785-2.036,7.948,7.948,0,0,1-2.415-.768,11.844,11.844,0,0,0,2.73-7.58v-3.4h1.082v-2.775Z" transform="translate(-62.417 -94.676)" fill="#fff"/>
    <path id="패스_1823" data-name="패스 1823" d="M111.151,131.038a5.687,5.687,0,0,0-4.835.4,5.688,5.688,0,0,0-4.835-.4l-.806,5.137a7.128,7.128,0,0,1,5.641,1.007,7.127,7.127,0,0,1,5.641-1.007Z" transform="translate(-80.692 -104.738)" fill="#fff"/>
  </g>
</svg>
