<svg id="Component_Icon_Hide" data-name="Component/Icon/Hide" xmlns="http://www.w3.org/2000/svg" width="24" height="24" viewBox="0 0 24 24">
  <rect id="Rectangle_181" data-name="Rectangle 181" width="24" height="24" fill="#abb3bb" opacity="0"/>
  <path id="Group" d="M8.23,11.971A8.557,8.557,0,0,1,2.151,8.978,14.338,14.338,0,0,1,0,5.985,13.7,13.7,0,0,1,3.786,1.542L6.644,4.4A2.245,2.245,0,1,0,9.816,7.572l2.858,2.857A7.483,7.483,0,0,1,8.23,11.971Zm6.614-3.6h0L6.659.18A6.842,6.842,0,0,1,8.218,0H8.23a8.559,8.559,0,0,1,6.079,2.992A14.344,14.344,0,0,1,16.46,5.985a13.9,13.9,0,0,1-1.616,2.386Z" transform="translate(3.77 6.015)" fill="none" stroke="#abb3bb" stroke-linecap="round" stroke-linejoin="round" stroke-width="1.5"/>
  <path id="Vector" d="M0,0,14,14" transform="translate(5 5)" fill="none" stroke="#abb3bb" stroke-linecap="round" stroke-linejoin="round" stroke-width="1.5"/>
</svg>
