<svg xmlns="http://www.w3.org/2000/svg" xmlns:xlink="http://www.w3.org/1999/xlink" width="664.745" height="552.271" viewBox="0 0 664.745 552.271">
  <defs>
    <clipPath id="clip-path">
      <rect id="사각형_1406" data-name="사각형 1406" width="664.745" height="552.271" fill="none"/>
    </clipPath>
    <clipPath id="clip-path-2">
      <rect id="사각형_1408" data-name="사각형 1408" width="99.42" height="77.587" rx="17.394" fill="none"/>
    </clipPath>
    <linearGradient id="linear-gradient" x1="-0.512" y1="5.049" x2="-0.509" y2="5.049" gradientUnits="objectBoundingBox">
      <stop offset="0" stop-color="#fed066"/>
      <stop offset="1" stop-color="#f79e3e"/>
    </linearGradient>
    <clipPath id="clip-path-4">
      <path id="사각형_1410" data-name="사각형 1410" d="M26.327,0H91.111a26.328,26.328,0,0,1,26.328,26.328V91.12a26.328,26.328,0,0,1-26.328,26.328H26.329A26.329,26.329,0,0,1,0,91.119V26.327A26.327,26.327,0,0,1,26.327,0Z" fill="none"/>
    </clipPath>
    <linearGradient id="linear-gradient-2" x1="-2.074" y1="4.393" x2="-2.072" y2="4.393" gradientUnits="objectBoundingBox">
      <stop offset="0" stop-color="#c587f7"/>
      <stop offset="1" stop-color="#6a56f7"/>
    </linearGradient>
    <clipPath id="clip-path-6">
      <path id="패스_2267" data-name="패스 2267" d="M1662.984,1253.256s-6.741,68.969,6.955,99.615c18.831,42.135,73.631,61.606,73.631,61.606s54.8-19.471,73.631-61.606c13.7-30.646,6.955-99.615,6.955-99.615-52.991,13.04-80.586-6.168-80.586-6.168s-33.126,19.208-80.587,6.168" transform="translate(-1661.325 -1247.088)" fill="none"/>
    </clipPath>
    <linearGradient id="linear-gradient-3" x1="-2.517" y1="1.305" x2="-2.515" y2="1.305" gradientUnits="objectBoundingBox">
      <stop offset="0" stop-color="#8be67b"/>
      <stop offset="1" stop-color="#3fa950"/>
    </linearGradient>
    <clipPath id="clip-path-7">
      <path id="패스_2268" data-name="패스 2268" d="M1716.7,1310.89s-4.6,55.1,6.593,79.413c15.383,33.434,60.148,48.884,60.148,48.884h0s44.765-15.45,60.147-48.884c11.188-24.317,6.593-79.413,6.593-79.413-43.886,10.642-66.74-7.446-66.74-7.446s-27.435,18.088-66.74,7.446" transform="translate(-1715.766 -1303.444)" fill="none"/>
    </clipPath>
    <linearGradient id="linear-gradient-4" x1="-3.193" y1="1.499" x2="-3.191" y2="1.499" gradientUnits="objectBoundingBox">
      <stop offset="0" stop-color="#4abb63"/>
      <stop offset="1" stop-color="#278a48"/>
    </linearGradient>
    <clipPath id="clip-path-8">
      <path id="패스_2269" data-name="패스 2269" d="M1783.441,1309.6s25.343,14.482,61.778,9.359c0,0,2.813,49.584-8.261,71.114-10.794,20.988-42.172,40.325-53.39,42.839,0,0-38.229-11.293-53.885-47.272-6.256-14.378-8.952-53.566-7.667-66.682a58.63,58.63,0,0,0,15.943,1.93c16.4,0,35.544-4.728,45.481-11.289m-66.74,1.289s-4.6,55.1,6.593,79.413c15.383,33.434,60.148,48.884,60.148,48.884h0s44.765-15.45,60.147-48.884c11.188-24.317,6.593-79.413,6.593-79.413-43.886,10.642-66.74-7.446-66.74-7.446s-27.435,18.088-66.74,7.446" transform="translate(-1715.766 -1303.444)" fill="none"/>
    </clipPath>
    <linearGradient id="linear-gradient-5" x1="-3.193" y1="1.499" x2="-3.191" y2="1.499" gradientUnits="objectBoundingBox">
      <stop offset="0" stop-color="#31a550"/>
      <stop offset="1" stop-color="#1b793d"/>
    </linearGradient>
    <clipPath id="clip-path-10">
      <path id="패스_2272" data-name="패스 2272" d="M346.679,1409.631c17.353,11.552,31.443,13.982,48.4,6.6v-28.02c-20.412-.059-34.264-10.284-38.982-32.349l-1.81-.515Z" transform="translate(-346.679 -1355.346)" fill="none"/>
    </clipPath>
    <linearGradient id="linear-gradient-6" x1="-0.946" y1="2.742" x2="-0.942" y2="2.742" gradientUnits="objectBoundingBox">
      <stop offset="0" stop-color="#ffc4cd"/>
      <stop offset="1" stop-color="#ed93a1"/>
    </linearGradient>
    <clipPath id="clip-path-11">
      <path id="패스_2273" data-name="패스 2273" d="M362.838,1237.64c1.256-7.152-.632-13.954-9.23-12.523-9.647,1.606-9.387,22.856,1.856,23a31.572,31.572,0,0,0,9.219,23.641c8.349,8.443,35.643,14.4,45.624,6.421,15.03-12.013,22.487-46.009,21.6-57.031l-52.666-15.459Z" transform="translate(-346.682 -1205.687)" fill="none"/>
    </clipPath>
    <linearGradient id="linear-gradient-7" x1="-1.014" y1="2.853" x2="-1.011" y2="2.853" gradientUnits="objectBoundingBox">
      <stop offset="0" stop-color="#ffc4cd"/>
      <stop offset="1" stop-color="#ffaab7"/>
    </linearGradient>
    <clipPath id="clip-path-12">
      <path id="패스_2274" data-name="패스 2274" d="M362.466,1086.417a17.458,17.458,0,0,0-16.2,4.379c-6.459,5.981.817,16.073-7.7,24.254-7.665,7.36.042,18.759.372,22.937,1.926-7.928,9.213-8.225,12.438-6.161,2.971,1.9,4.125,5.751,2.764,12.1,0,0-.93,10.715,3.709,8.549s14.032-16.785,14.126-21.992,8.34-6.306,13.534-4.033,10.59,4.355,16.745,1.988,13.456,3.752,18.043,7.45,14.83-1.268,17.25-10.74c2.041-7.989-1.361-13.226-7.723-20.623s-3.448-16.588-9.527-21.422c-6.292-5-13.143-3.842-19.328-2.682-4.9.919-9.381,1.839-12.834-.307a20.447,20.447,0,0,0-10.651-3.053,16.164,16.164,0,0,0-15.02,9.355" transform="translate(-335.184 -1077.061)" fill="none"/>
    </clipPath>
    <linearGradient id="linear-gradient-8" x1="-0.7" y1="2.215" x2="-0.698" y2="2.215" gradientUnits="objectBoundingBox">
      <stop offset="0" stop-color="#905117"/>
      <stop offset="1" stop-color="#623112"/>
    </linearGradient>
    <clipPath id="clip-path-13">
      <path id="패스_2275" data-name="패스 2275" d="M129.484,1511.926v133.529H315.856s-4.708-101.876-27.891-125.935c-8.621-8.946-51.95-18.553-51.95-18.553s-1.095,13.679-12.378,14.71c-11.393,1.041-34.186-22.751-34.186-22.751a316.689,316.689,0,0,0-59.967,19" transform="translate(-129.484 -1492.926)" fill="none"/>
    </clipPath>
    <linearGradient id="linear-gradient-9" x1="-0.186" y1="1.001" x2="-0.185" y2="1.001" gradientUnits="objectBoundingBox">
      <stop offset="0" stop-color="#6faef5"/>
      <stop offset="1" stop-color="#2f6cfa"/>
    </linearGradient>
    <clipPath id="clip-path-15">
      <path id="패스_2277" data-name="패스 2277" d="M129.483,1726.646v89.976l10.237.183c1.623-5.08,3.2-9.852,4.122-9.475A140.639,140.639,0,0,0,168.693,1815l5.029-7.668c2.464,2.963,5.167,3.27,9.868,2.85,4.542-.406,5.267-7.229,5.267-7.229,3.884,1.477,24.688,6.952,28.743-4.158,5.069-13.888-15.7-27.889-25.666-32.633l2.94-5.738-37.837-18.062,3.44-15.715Z" transform="translate(-129.483 -1726.646)" fill="none"/>
    </clipPath>
    <linearGradient id="linear-gradient-10" x1="-0.372" y1="1" x2="-0.369" y2="1" gradientUnits="objectBoundingBox">
      <stop offset="0" stop-color="#3479ee"/>
      <stop offset="1" stop-color="#134cd0"/>
    </linearGradient>
    <clipPath id="clip-path-17">
      <path id="패스_2279" data-name="패스 2279" d="M14.215,1579.9c-8.655,17.1-21.842,47.815-8.589,73.541,7.248,14.07,68.265,32.937,68.265,32.937l22.977-49.7-41.8-19.654,10.583-15.715-25.562-45.8s-15.356,3.621-25.87,24.393" transform="translate(0 -1555.506)" fill="none"/>
    </clipPath>
    <linearGradient id="linear-gradient-11" x1="0.073" y1="1.039" x2="0.076" y2="1.039" xlink:href="#linear-gradient-9"/>
    <clipPath id="clip-path-19">
      <path id="패스_2280" data-name="패스 2280" d="M512.168,1674.845a7.6,7.6,0,0,0-7.23,6.242l-14.5,91.54a5.2,5.2,0,0,0,5.253,6.241H637.884a7.6,7.6,0,0,0,7.23-6.241l14.5-91.54a5.2,5.2,0,0,0-5.253-6.242Z" transform="translate(-490.361 -1674.845)" fill="none"/>
    </clipPath>
    <linearGradient id="linear-gradient-12" x1="-1.321" y1="0.791" x2="-1.318" y2="0.791" gradientUnits="objectBoundingBox">
      <stop offset="0" stop-color="#2b4594"/>
      <stop offset="1" stop-color="#1c2770"/>
    </linearGradient>
  </defs>
  <g id="그룹_3475" data-name="그룹 3475" transform="translate(0 -0.002)">
    <g id="그룹_3436" data-name="그룹 3436" transform="translate(0 0.002)">
      <g id="그룹_3435" data-name="그룹 3435" clip-path="url(#clip-path)">
        <rect id="사각형_1402" data-name="사각형 1402" width="529.356" height="377.455" rx="42.31" transform="translate(100.74 98.385)" fill="#edf2fc"/>
        <path id="패스_2254" data-name="패스 2254" d="M376.4,426.946V514h48.228a5.118,5.118,0,0,0,5-5.223V432.169a5.118,5.118,0,0,0-5-5.223Zm327.3-59.334V476.817a9.467,9.467,0,0,0,9.463,9.463h192.59V378.936a11.329,11.329,0,0,0-11.323-11.324Z" transform="translate(-275.66 -269.226)" fill="#d7e1f9" fill-rule="evenodd"/>
        <path id="패스_2255" data-name="패스 2255" d="M894.44,367.609H387.731a11.329,11.329,0,0,0-11.324,11.324V418.46a2.678,2.678,0,0,0,2.676,2.676h524a2.677,2.677,0,0,0,2.676-2.676V378.933a11.329,11.329,0,0,0-11.323-11.324Z" transform="translate(-275.667 -269.224)" fill="#e86f6f" fill-rule="evenodd"/>
        <path id="패스_2256" data-name="패스 2256" d="M1599.347,367.609v53.527h199.377a2.677,2.677,0,0,0,2.676-2.676V378.933a11.329,11.329,0,0,0-11.323-11.324Z" transform="translate(-1171.305 -269.224)" fill="#de5050" fill-rule="evenodd"/>
        <path id="패스_2257" data-name="패스 2257" d="M1111.756,367.609H983.376v17.176a7.379,7.379,0,0,0,7.376,7.376h113.627a7.38,7.38,0,0,0,7.376-7.376Z" transform="translate(-720.19 -269.224)" fill="#de5050" fill-rule="evenodd"/>
        <path id="패스_2258" data-name="패스 2258" d="M496.332,432.029a9.522,9.522,0,1,1-9.521,9.521,9.526,9.526,0,0,1,9.521-9.521m51.284,0a9.522,9.522,0,1,1-9.521,9.521,9.526,9.526,0,0,1,9.521-9.521m51.284,0a9.522,9.522,0,1,1-9.521,9.521,9.526,9.526,0,0,1,9.521-9.521" transform="translate(-356.523 -316.403)" fill="#f1f4fc" fill-rule="evenodd"/>
        <path id="사각형_1403" data-name="사각형 1403" d="M19.74,0H91.982a19.74,19.74,0,0,1,19.74,19.74v0a19.74,19.74,0,0,1-19.74,19.74H19.74A19.74,19.74,0,0,1,0,19.741v0A19.74,19.74,0,0,1,19.74,0Z" transform="translate(309.557 354.489)" fill="#8eace4"/>
        <path id="사각형_1404" data-name="사각형 1404" d="M19.74,0H220.379a19.74,19.74,0,0,1,19.74,19.74v0a19.74,19.74,0,0,1-19.74,19.74H19.74A19.74,19.74,0,0,1,0,19.741v0A19.74,19.74,0,0,1,19.74,0Z" transform="translate(245.357 280.841)" fill="#fff"/>
        <path id="패스_2259" data-name="패스 2259" d="M1238.006,1105.828l-1.145-2.025-3.4,2.025.029-3.786h-2.227l.03,3.757-3.375-2-1.174,2.025,3.375,1.849-3.375,1.849,1.174,2,3.375-1.967-.03,3.757h2.227l-.029-3.786,3.4,2,1.145-2-3.346-1.849Zm15.732,0-1.145-2.025-3.4,2.025.03-3.786h-2.227l.029,3.757-3.375-2-1.174,2.025,3.375,1.849-3.375,1.849,1.174,2,3.375-1.967-.029,3.757h2.227l-.03-3.786,3.4,2,1.145-2-3.346-1.849Zm15.732,0-1.145-2.025-3.4,2.025.029-3.786h-2.227l.029,3.757-3.375-2-1.174,2.025,3.375,1.849-3.375,1.849,1.174,2,3.375-1.967-.029,3.757h2.227l-.029-3.786,3.4,2,1.145-2-3.346-1.849Zm15.732,0-1.145-2.025-3.4,2.025.029-3.786h-2.227l.029,3.757-3.375-2-1.174,2.025,3.375,1.849-3.375,1.849,1.174,2,3.375-1.967-.029,3.757h2.227l-.029-3.786,3.4,2,1.145-2-3.346-1.849Zm15.732,0-1.145-2.025-3.4,2.025.029-3.786h-2.227l.029,3.757-3.375-2-1.174,2.025,3.375,1.849-3.375,1.849,1.174,2,3.375-1.967-.029,3.757h2.227l-.029-3.786,3.4,2,1.145-2-3.346-1.849Z" transform="translate(-898.42 -807.097)" fill="#8eace4"/>
        <path id="사각형_1405" data-name="사각형 1405" d="M19.74,0h200.64a19.74,19.74,0,0,1,19.74,19.74v0a19.74,19.74,0,0,1-19.74,19.74H19.74A19.74,19.74,0,0,1,0,19.741v0A19.74,19.74,0,0,1,19.74,0Z" transform="translate(245.357 225.031)" fill="#fff"/>
        <path id="패스_2260" data-name="패스 2260" d="M1185.453,897.3l-1.145-2.025-3.4,2.025.029-3.786h-2.227l.029,3.757-3.375-2-1.174,2.025,3.375,1.849L1174.186,901l1.174,2,3.375-1.967-.029,3.757h2.227L1180.9,901l3.4,2,1.145-2-3.346-1.849Zm-94.391,0-1.145-2.025-3.4,2.025.029-3.786h-2.227l.029,3.757-3.375-2L1079.8,897.3l3.375,1.849L1079.8,901l1.174,2,3.375-1.967-.029,3.757h2.227l-.029-3.786,3.4,2,1.145-2-3.346-1.849Zm15.732,0-1.145-2.025-3.4,2.025.03-3.786h-2.227l.029,3.757-3.375-2-1.174,2.025,3.375,1.849L1095.527,901l1.174,2,3.375-1.967-.029,3.757h2.227l-.03-3.786,3.4,2,1.145-2-3.346-1.849Zm15.732,0-1.145-2.025-3.4,2.025.029-3.786h-2.227l.029,3.757-3.375-2-1.174,2.025,3.375,1.849L1111.259,901l1.174,2,3.375-1.967-.029,3.757h2.227l-.029-3.786,3.4,2,1.145-2-3.346-1.849Zm31.464,0-1.145-2.025-3.4,2.025.03-3.786h-2.227l.029,3.757-3.375-2-1.174,2.025,3.375,1.849L1142.722,901l1.174,2,3.375-1.967-.029,3.757h2.227l-.03-3.786,3.4,2,1.145-2-3.346-1.849Zm15.732,0-1.145-2.025-3.4,2.025.03-3.786h-2.227l.029,3.757-3.375-2-1.174,2.025,3.375,1.849L1158.454,901l1.174,2,3.375-1.967-.029,3.757h2.227l-.03-3.786,3.4,2,1.145-2-3.346-1.849Zm-31.464,0-1.145-2.025-3.4,2.025.029-3.786h-2.227l.029,3.757-3.375-2-1.174,2.025,3.375,1.849L1126.99,901l1.174,2,3.375-1.967-.029,3.757h2.227l-.029-3.786,3.4,2,1.145-2-3.346-1.849Zm78.659,0-1.145-2.025-3.4,2.025.029-3.786h-2.227l.029,3.757-3.375-2-1.174,2.025,3.375,1.849L1205.649,901l1.174,2,3.375-1.967-.029,3.757h2.227l-.029-3.786,3.4,2,1.145-2-3.346-1.849Zm-15.732,0-1.145-2.025-3.4,2.025.029-3.786h-2.227l.029,3.757-3.375-2-1.174,2.025,3.375,1.849L1189.918,901l1.174,2,3.375-1.967-.029,3.757h2.227l-.029-3.786,3.4,2,1.145-2-3.346-1.849Zm31.464,0-1.145-2.025-3.4,2.025.029-3.786H1225.9l.03,3.757-3.375-2-1.174,2.025,3.375,1.849L1221.381,901l1.174,2,3.375-1.967-.03,3.757h2.227L1228.1,901l3.4,2,1.145-2-3.346-1.849Z" transform="translate(-790.804 -654.377)" fill="#8eace4"/>
      </g>
    </g>
    <g id="그룹_3438" data-name="그룹 3438" transform="translate(50.864 160.557)">
      <g id="그룹_3437" data-name="그룹 3437" clip-path="url(#clip-path-2)">
        <rect id="사각형_1407" data-name="사각형 1407" width="99.42" height="77.587" transform="translate(0 0)" fill="url(#linear-gradient)"/>
      </g>
    </g>
    <g id="그룹_3440" data-name="그룹 3440" transform="translate(0 0.002)">
      <g id="그룹_3439" data-name="그룹 3439" clip-path="url(#clip-path)">
        <path id="패스_2261" data-name="패스 2261" d="M311.134,694.1a2.589,2.589,0,0,0-2.588-2.587H239.255a2.587,2.587,0,1,0,0,5.175h69.292a2.589,2.589,0,0,0,2.588-2.588m0-10.06a2.589,2.589,0,0,0-2.588-2.588H239.255a2.587,2.587,0,1,0,0,5.175h69.292a2.589,2.589,0,0,0,2.588-2.587m0-10.06a2.589,2.589,0,0,0-2.588-2.588H239.255a2.587,2.587,0,1,0,0,5.175h69.292a2.589,2.589,0,0,0,2.588-2.587m0-10.06a2.589,2.589,0,0,0-2.588-2.588H239.255a2.587,2.587,0,1,0,0,5.175h69.292a2.589,2.589,0,0,0,2.588-2.587m0-10.06a2.589,2.589,0,0,0-2.588-2.588H239.255a2.588,2.588,0,0,0,0,5.175h69.292a2.589,2.589,0,0,0,2.588-2.588m0-10.06a2.589,2.589,0,0,0-2.588-2.588H239.255a2.587,2.587,0,1,0,0,5.175h69.292a2.589,2.589,0,0,0,2.588-2.587" transform="translate(-173.326 -469.601)" fill="#fff" fill-rule="evenodd"/>
      </g>
    </g>
    <g id="그룹_3442" data-name="그룹 3442" transform="translate(268.66 0.002)">
      <g id="그룹_3441" data-name="그룹 3441" clip-path="url(#clip-path-4)">
        <path id="패스_2262" data-name="패스 2262" d="M985.609-12.585l5.07,121.925,122.12-4.865-5.07-121.925Z" transform="translate(-990.485 12.779)" fill="url(#linear-gradient-2)"/>
      </g>
    </g>
    <g id="그룹_3444" data-name="그룹 3444" transform="translate(0 0.002)">
      <g id="그룹_3443" data-name="그룹 3443" clip-path="url(#clip-path)">
        <path id="패스_2263" data-name="패스 2263" d="M1129.705,91.735a34.173,34.173,0,1,0,34.173,34.173,34.189,34.189,0,0,0-34.173-34.173m-1.924,64.439a30.2,30.2,0,0,1-5.362-.822,20.166,20.166,0,0,1-2.349-2.659c-3.066-4.111-5.374-9.947-6.535-16.721h14.245Zm9.208-.822a30.22,30.22,0,0,1-5.361.822v-20.2h14.246c-1.161,6.774-3.469,12.61-6.535,16.721A20.149,20.149,0,0,1,1136.99,155.352Zm21.329-19.38a30.452,30.452,0,0,1-14.328,16.688,46.857,46.857,0,0,0,5.775-16.688Zm-57.227,0h8.553a46.852,46.852,0,0,0,5.775,16.688,30.453,30.453,0,0,1-14.328-16.688m58.3-16.281a30.559,30.559,0,0,1,0,12.434h-9.132c.2-2.02.3-4.1.3-6.217s-.1-4.2-.3-6.217Zm-59.374,0h9.132c-.2,2.02-.3,4.1-.3,6.217s.1,4.2.3,6.217h-9.132a30.559,30.559,0,0,1,0-12.434m12.994,12.434a61.921,61.921,0,0,1,0-12.434h14.769v12.434Zm33.386-12.434a61.9,61.9,0,0,1,0,12.434h-14.769V119.691Zm-2.407-20.536a30.452,30.452,0,0,1,14.328,16.689h-8.553a46.86,46.86,0,0,0-5.775-16.689m-28.572,0a46.855,46.855,0,0,0-5.775,16.689h-8.553a30.451,30.451,0,0,1,14.328-16.689m16.209-3.514a30.237,30.237,0,0,1,5.361.822,20.152,20.152,0,0,1,2.349,2.659c3.066,4.111,5.374,9.947,6.535,16.721h-14.246Zm-3.847,0v20.2h-14.245c1.161-6.774,3.469-12.61,6.535-16.721a20.169,20.169,0,0,1,2.349-2.659A30.233,30.233,0,0,1,1127.781,95.642Z" transform="translate(-802.329 -67.184)" fill="#fff" fill-rule="evenodd"/>
        <path id="사각형_1411" data-name="사각형 1411" d="M35.357,0H194.435a35.358,35.358,0,0,1,35.358,35.358v87a35.357,35.357,0,0,1-35.357,35.357H35.357A35.357,35.357,0,0,1,0,122.356v-87A35.357,35.357,0,0,1,35.357,0Z" transform="translate(434.952 50.541)" fill="#fdfeff"/>
        <path id="패스_2264" data-name="패스 2264" d="M1803.1,454.928a.8.8,0,0,0-.8-.8H1685.445a.8.8,0,0,0-.8.8v6.423a.8.8,0,0,0,.8.8H1802.3a.8.8,0,0,0,.8-.8Zm79.5-14.769a.8.8,0,0,0-.8-.8H1685.445a.8.8,0,0,0-.8.8v6.423a.8.8,0,0,0,.8.8H1881.8a.8.8,0,0,0,.8-.8Zm0-14.769a.8.8,0,0,0-.8-.8H1685.445a.8.8,0,0,0-.8.8v6.423a.8.8,0,0,0,.8.8H1881.8a.8.8,0,0,0,.8-.8Zm0-14.769a.8.8,0,0,0-.8-.8H1685.445a.8.8,0,0,0-.8.8v6.423a.8.8,0,0,0,.8.8H1881.8a.8.8,0,0,0,.8-.8Zm-97.728-29.9a3.336,3.336,0,0,0-3.334-3.334h-93.563a3.336,3.336,0,0,0-3.334,3.334v15.56a3.336,3.336,0,0,0,3.334,3.334h93.563a3.336,3.336,0,0,0,3.334-3.334Z" transform="translate(-1233.772 -276.387)" fill="#d2defb" fill-rule="evenodd"/>
        <path id="패스_2265" data-name="패스 2265" d="M1846.474,188.845H1633.65a8.489,8.489,0,0,0-8.485,8.485v27.545h229.793V197.33A8.489,8.489,0,0,0,1846.474,188.845Z" transform="translate(-1190.213 -138.304)" fill="#63a2f6" fill-rule="evenodd"/>
        <path id="패스_2266" data-name="패스 2266" d="M1703.916,233.147a6.158,6.158,0,1,1-6.158,6.158,6.161,6.161,0,0,1,6.158-6.158m33.168,0a6.158,6.158,0,1,1-6.158,6.158,6.161,6.161,0,0,1,6.158-6.158m33.168,0a6.158,6.158,0,1,1-6.158,6.158,6.161,6.161,0,0,1,6.158-6.158" transform="translate(-1243.377 -170.749)" fill="#f1f4fc" fill-rule="evenodd"/>
      </g>
    </g>
    <g id="그룹_3446" data-name="그룹 3446" transform="translate(444.63 333.767)">
      <g id="그룹_3445" data-name="그룹 3445" clip-path="url(#clip-path-6)">
        <rect id="사각형_1413" data-name="사각형 1413" width="174.655" height="167.39" transform="translate(-5.082 0)" fill="url(#linear-gradient-3)"/>
      </g>
    </g>
    <g id="그룹_3448" data-name="그룹 3448" transform="translate(459.2 348.85)">
      <g id="그룹_3447" data-name="그룹 3447" clip-path="url(#clip-path-7)">
        <rect id="사각형_1414" data-name="사각형 1414" width="142.671" height="135.743" transform="translate(-3.661 0)" fill="url(#linear-gradient-4)"/>
      </g>
    </g>
    <g id="그룹_3450" data-name="그룹 3450" transform="translate(459.2 348.85)">
      <g id="그룹_3449" data-name="그룹 3449" clip-path="url(#clip-path-8)">
        <rect id="사각형_1415" data-name="사각형 1415" width="142.671" height="135.743" transform="translate(-3.661 0)" fill="url(#linear-gradient-5)"/>
      </g>
    </g>
    <g id="그룹_3452" data-name="그룹 3452" transform="translate(0 0.002)">
      <g id="그룹_3451" data-name="그룹 3451" clip-path="url(#clip-path)">
        <path id="패스_2270" data-name="패스 2270" d="M1884.138,1438.986h-1.08a3.027,3.027,0,0,0-3.026,3.026v31.769a3.027,3.027,0,0,0,3.026,3.026h41.372a3.027,3.027,0,0,0,3.025-3.026v-31.769a3.027,3.027,0,0,0-3.025-3.026h-1.08c-.244-4.625-1.026-12.29-3.49-18.893-2.826-7.573-7.86-13.649-16.115-13.649s-13.289,6.076-16.115,13.649C1885.164,1426.7,1884.382,1434.361,1884.138,1438.986Zm15.933,19.021a4.731,4.731,0,1,1,7.344,0l.669,7.49H1899.4Zm18.35-19.021a61.219,61.219,0,0,0-3.184-17.169c-2.078-5.568-5.424-10.441-11.494-10.441s-9.416,4.873-11.494,10.441a61.226,61.226,0,0,0-3.183,17.169Z" transform="translate(-1376.868 -1030.03)" fill="#d9fae9" fill-rule="evenodd"/>
        <path id="패스_2271" data-name="패스 2271" d="M656.216,1265.166s-1.832,13.724-6.707,19.6c-3.58,4.315,1.279,8.717-10.32,12.741l4.852-29.264Z" transform="translate(-468.12 -926.563)" fill="#5a3011" fill-rule="evenodd"/>
      </g>
    </g>
    <g id="그룹_3454" data-name="그룹 3454" transform="translate(92.784 362.74)">
      <g id="그룹_3453" data-name="그룹 3453" clip-path="url(#clip-path-10)">
        <rect id="사각형_1417" data-name="사각형 1417" width="80.914" height="69.288" transform="matrix(0.351, -0.936, 0.936, 0.351, -22.442, 59.852)" fill="url(#linear-gradient-6)"/>
      </g>
    </g>
    <g id="그룹_3456" data-name="그룹 3456" transform="translate(92.785 322.686)">
      <g id="그룹_3455" data-name="그룹 3455" clip-path="url(#clip-path-11)">
        <rect id="사각형_1418" data-name="사각형 1418" width="88.833" height="80.467" transform="translate(-2.721)" fill="url(#linear-gradient-7)"/>
      </g>
    </g>
    <g id="그룹_3458" data-name="그룹 3458" transform="translate(89.707 288.261)">
      <g id="그룹_3457" data-name="그룹 3457" clip-path="url(#clip-path-12)">
        <rect id="사각형_1419" data-name="사각형 1419" width="116.431" height="131.36" transform="matrix(0.425, -0.905, 0.905, 0.425, -34.137, 63.555)" fill="url(#linear-gradient-8)"/>
      </g>
    </g>
    <g id="그룹_3460" data-name="그룹 3460" transform="translate(34.655 399.562)">
      <g id="그룹_3459" data-name="그룹 3459" clip-path="url(#clip-path-13)">
        <rect id="사각형_1420" data-name="사각형 1420" width="186.372" height="152.529" transform="translate(0)" fill="url(#linear-gradient-9)"/>
      </g>
    </g>
    <g id="그룹_3462" data-name="그룹 3462" transform="translate(0 0.002)">
      <g id="그룹_3461" data-name="그룹 3461" clip-path="url(#clip-path)">
        <path id="패스_2276" data-name="패스 2276" d="M339.628,1487.5s11.083,11.046,22.106,17.354c5.135,2.938,10.3,4.8,14.46,4.492a20.583,20.583,0,0,0,18.678-14.891,2.676,2.676,0,0,0-5.2-1.283,15.321,15.321,0,0,1-13.876,10.835c-4.515.334-10.344-2.854-15.81-6.565a131.769,131.769,0,0,1-16.581-13.732,2.676,2.676,0,0,0-3.781,3.789Z" transform="translate(-248.156 -1086.046)" fill="#fff" fill-rule="evenodd"/>
      </g>
    </g>
    <g id="그룹_3464" data-name="그룹 3464" transform="translate(34.654 462.113)">
      <g id="그룹_3463" data-name="그룹 3463" clip-path="url(#clip-path-15)">
        <rect id="사각형_1422" data-name="사각형 1422" width="93.186" height="90.159" fill="url(#linear-gradient-10)"/>
      </g>
    </g>
    <g id="그룹_3466" data-name="그룹 3466" transform="translate(0 0.002)">
      <g id="그룹_3465" data-name="그룹 3465" clip-path="url(#clip-path)">
        <path id="패스_2278" data-name="패스 2278" d="M293.8,1868.056s36.435,14.115,31.84,31.84c-2.968,11.449-24.837,3.939-28.721,2.462,0,0,1.424,8.293-3.118,8.7-9.191.82-14.443-11.16-14.443-11.16Z" transform="translate(-204.593 -1368.098)" fill="#ffc4cd" fill-rule="evenodd"/>
      </g>
    </g>
    <g id="그룹_3468" data-name="그룹 3468" transform="translate(0 416.31)">
      <g id="그룹_3467" data-name="그룹 3467" clip-path="url(#clip-path-17)">
        <rect id="사각형_1424" data-name="사각형 1424" width="104.495" height="130.871" transform="translate(-7.627 0)" fill="url(#linear-gradient-11)"/>
      </g>
    </g>
    <g id="그룹_3470" data-name="그룹 3470" transform="translate(0 0.002)">
      <g id="그룹_3469" data-name="그룹 3469" clip-path="url(#clip-path)">
        <rect id="사각형_1425" data-name="사각형 1425" width="139.761" height="8.499" transform="translate(76.141 543.773)" fill="#15275d"/>
      </g>
    </g>
    <g id="그룹_3472" data-name="그룹 3472" transform="translate(131.238 448.25)">
      <g id="그룹_3471" data-name="그룹 3471" clip-path="url(#clip-path-19)">
        <rect id="사각형_1427" data-name="사각형 1427" width="118.586" height="178.748" transform="translate(-9.575 103.22) rotate(-84.958)" fill="url(#linear-gradient-12)"/>
      </g>
    </g>
    <g id="그룹_3474" data-name="그룹 3474" transform="translate(0 0.002)">
      <g id="그룹_3473" data-name="그룹 3473" clip-path="url(#clip-path)">
        <path id="패스_2281" data-name="패스 2281" d="M821.138,1787.756a7.316,7.316,0,0,0-4.62-1.557,10.208,10.208,0,0,0-9.713,8.385,6.981,6.981,0,0,0,7.057,8.385,10.2,10.2,0,0,0,9.713-8.385H815.19Z" transform="translate(-590.798 -1308.149)" fill="#b4c0ea" fill-rule="evenodd"/>
      </g>
    </g>
  </g>
</svg>
